<svg width="259" height="297" viewBox="0 0 259 297" fill="none" xmlns="http://www.w3.org/2000/svg">
<path d="M0.895637 45.1956C53.0262 47.1823 108.641 15.893 129.932 0V297C13.2831 263.227 -4.69592 115.058 0.895637 45.1956Z" fill="#00427E"/>
<path d="M258.072 45.1956C205.941 47.1823 150.327 15.893 129.036 0V297C245.685 263.227 263.664 115.058 258.072 45.1956Z" fill="#00427E"/>
<path d="M12.6963 54.4038C60.0427 56.2081 110.553 27.7903 129.89 13.3558V283.1C23.9469 252.427 7.61784 117.855 12.6963 54.4038Z" fill="#A6D2FB"/>
<path d="M246.271 54.4038C198.925 56.2081 148.414 27.7903 129.077 13.3558V283.1C235.021 252.427 251.35 117.855 246.271 54.4038Z" fill="#A6D2FB"/>
<rect x="109.65" y="83.6333" width="42.1036" height="53.7781" rx="21.0518" stroke="black" stroke-width="13"/>
<rect x="81.2631" y="118.024" width="98.756" height="83.3254" rx="15" fill="#00427E"/>
<circle cx="130.702" cy="147.647" r="9.80657" fill="#A6D2FB"/>
<rect x="125.565" y="147.647" width="9.80657" height="33.6225" rx="4.90328" fill="#A6D2FB"/>
</svg>
