<svg width="477" height="640" viewBox="0 0 477 640" fill="none" xmlns="http://www.w3.org/2000/svg">
<mask id="path-1-inside-1" fill="white">
<path d="M256.639 195.032C233.971 169.243 218.007 139.434 212.258 112.163C206.509 84.8913 211.446 62.3918 225.984 49.6136C240.521 36.8354 263.468 34.8253 289.776 44.0254C316.085 53.2256 343.599 72.8823 366.267 98.6715L311.453 146.852L256.639 195.032Z"/>
</mask>
<path d="M256.639 195.032C233.971 169.243 218.007 139.434 212.258 112.163C206.509 84.8913 211.446 62.3918 225.984 49.6136C240.521 36.8354 263.468 34.8253 289.776 44.0254C316.085 53.2256 343.599 72.8823 366.267 98.6715L311.453 146.852L256.639 195.032Z" stroke="#A6D2FB" stroke-width="10" mask="url(#path-1-inside-1)"/>
<path d="M255.739 205.939C246.759 195.952 247.722 180.54 257.875 171.748L342.484 98.4845C352.372 89.9223 367.296 90.8547 376.041 100.581L458.152 191.901C467.014 201.758 466.208 216.932 456.352 225.795L373.141 300.614C363.285 309.476 348.11 308.67 339.248 298.814L255.739 205.939Z" fill="#A6D2FB"/>
<ellipse cx="306.228" cy="144.995" rx="49.7436" ry="11.3917" transform="rotate(-42.052 306.228 144.995)" fill="#00427E"/>
<path d="M337.821 286.11L311.343 256.662L166.796 328.351L173.291 335.574L337.821 286.11Z" fill="#A6D2FB"/>
<path d="M263.066 284.913L280.625 218.399" stroke="#A6D2FB" stroke-width="12"/>
<path d="M11.8587 538.973C9.34756 526.583 18.8183 515 31.4602 515H112.441C125.116 515 134.594 526.638 132.027 539.05L114.452 624.05C112.531 633.338 104.351 640 94.8659 640H48.6878C39.1735 640 30.9762 633.297 29.0863 623.973L11.8587 538.973Z" fill="#00427E"/>
<path d="M70.3584 534C71.4855 509.37 70.7388 456.088 58.7347 440" stroke="black"/>
<path d="M70 492C70.7981 485.111 75.3155 470.267 87 466" stroke="black"/>
<path d="M44.3735 423.308C44.4558 435.409 54.3406 439.876 59.2727 440.597C73.691 414.256 49.0991 406.942 35.0009 406.578C38.0908 407.113 44.2912 411.208 44.3735 423.308Z" fill="#00427E"/>
<path d="M1.8759 527.618C0.887782 520.971 6.03701 515 12.7563 515H131.509C138.136 515 143.259 520.817 142.421 527.391L141.402 535.391C140.702 540.884 136.027 545 130.49 545H13.9457C8.49529 545 3.86679 541.009 3.06527 535.618L1.8759 527.618Z" fill="#A6D2FB"/>
<path d="M85.0931 454.334C75.5502 460.22 76.4639 469.923 78.1136 474.04C86.0355 478.644 96.2471 476.414 97.9825 465.582C99.3709 456.917 105.849 452.272 108.914 451.032C104.95 449.681 94.636 448.449 85.0931 454.334Z" fill="#00427E"/>
<path d="M70.5 500C68.8333 496 63.4 486.9 55 482.5" stroke="black"/>
<path d="M44.976 467.002C54.1601 469.583 56.3702 478.708 56.3272 482.947C51.5587 489.466 42.9548 490.417 38.3475 481.038C34.6616 473.535 28.2317 471.189 25.4775 470.954C28.1503 468.561 35.7919 464.421 44.976 467.002Z" fill="#00427E"/>
<circle cx="144.5" cy="349.5" r="7.5" fill="black"/>
<circle cx="128.5" cy="372.5" r="5.5" fill="black"/>
<circle cx="118.5" cy="395.5" r="4.5" fill="black"/>
<circle cx="111.5" cy="417.5" r="3.5" fill="black"/>
<circle cx="108.5" cy="483.5" r="2.5" fill="black"/>
<circle cx="108.5" cy="460.5" r="2.5" fill="black"/>
<circle cx="108.5" cy="439.5" r="2.5" fill="black"/>
<circle cx="98.5" cy="451.5" r="2.5" fill="black"/>
<circle cx="108.5" cy="509.5" r="2.5" fill="black"/>
</svg>
