<svg width="36" height="36" viewBox="0 0 36 36" fill="none" xmlns="http://www.w3.org/2000/svg">
<g clip-path="url(#clip0)">
<path d="M24.9595 15.5134L24.9551 15.5177C24.2181 13.9647 23.3906 13.0153 22.3369 12.1733L18.6569 15.8528C18.2457 16.2639 18.2464 16.9325 18.6559 17.3421C18.6571 17.3434 18.6574 17.3451 18.6587 17.3463C19.8917 18.5814 19.891 20.5843 18.6568 21.8183L11.7262 28.7489C10.5335 29.9417 8.44474 29.9417 7.25203 28.7489C6.01545 27.5124 6.01545 25.5113 7.25203 24.2748L9.31015 22.2167C8.35987 20.5121 7.80616 18.6065 7.80616 16.5974C7.80616 15.9098 7.88737 15.2367 8.00339 14.5736L2.77686 19.7996C-0.924806 23.5003 -0.924806 29.5235 2.77686 33.2242C6.47747 36.9248 12.4999 36.9257 16.2015 33.2242C22.0905 27.3343 23.6104 26.1631 24.7415 24.0524C26.2456 21.2622 26.2878 18.2955 24.9595 15.5134Z" fill="white"/>
<path d="M33.2156 2.78437C29.5242 -0.928123 23.5126 -0.928123 19.8 2.78437L12.7005 9.8843C8.44461 14.1402 9.36872 21.0434 13.502 23.996L17.1724 20.3257C17.5378 19.9601 17.5965 19.2996 17.1724 18.828C16.3675 18.051 16.1026 16.7717 16.2652 16.4444C16.3167 14.5319 18.1962 13.3319 24.2719 7.25624C27.2263 4.30178 31.7444 8.83095 28.7437 11.7281L26.5109 13.9614C27.9036 16.4589 28.2755 18.977 27.8193 21.5967L33.2156 16.2C36.9281 12.5086 36.9281 6.47577 33.2156 2.78437Z" fill="white"/>
</g>
<defs>
<clipPath id="clip0">
<rect width="36" height="36" fill="white"/>
</clipPath>
</defs>
</svg>
