<svg width="36" height="36" viewBox="0 0 36 36" fill="none" xmlns="http://www.w3.org/2000/svg">
<g clip-path="url(#clip0)">
<path d="M34.5765 23.4826C34.2734 23.85 33.9153 24.1806 33.5204 24.4469V28.5612H34.0347C35.1183 28.5612 35.9908 27.6888 36 26.6143V21.6459L34.5765 23.4826Z" fill="#00427E"/>
<path d="M25.898 14.6939H31.1969C31.3531 14.6939 31.5184 14.6755 31.6837 14.6388V9.38572C31.6837 8.30205 30.802 7.43878 29.7276 7.43878H1.96531C0.881633 7.43878 0.00918367 8.31123 0 9.38572V30.4439C0.00918367 31.5276 0.881633 32.4092 1.96531 32.4184H29.7276C30.8112 32.4092 31.6837 31.5276 31.6837 30.4439L31.6745 25.1082C31.5184 25.1265 31.3531 25.1449 31.1878 25.1541H25.898C23.0143 25.1449 20.6724 22.8031 20.6724 19.9194C20.6724 17.0357 23.0143 14.6939 25.898 14.6939Z" fill="#00427E"/>
<path d="M34.0347 3.58163H6.27241C5.18873 3.59082 4.31628 4.47245 4.31628 5.55612V5.60204H29.7275C31.8214 5.60204 33.5204 7.29184 33.5204 9.38572V13.2245L36 10.0286V5.55612C35.9908 4.47245 35.1183 3.59082 34.0347 3.58163Z" fill="#00427E"/>
<path d="M35.9909 13.0316L34.5674 14.8684C34.1542 15.401 33.6215 15.8326 33.0154 16.1173C32.446 16.3928 31.8215 16.5306 31.1878 16.5306H25.8981C24.0246 16.5398 22.5093 18.0551 22.5093 19.9286C22.5093 21.802 24.0246 23.3173 25.8981 23.3265H31.197C31.9501 23.3173 32.6664 22.9684 33.1256 22.3714L36.0001 18.6428L35.9909 13.0316ZM27.9552 20.8469H25.7511C25.246 20.8469 24.8327 20.4337 24.8327 19.9286C24.8327 19.4235 25.246 19.0102 25.7511 19.0102H27.9552C28.4603 19.0102 28.8736 19.4235 28.8736 19.9286C28.8736 20.4337 28.4603 20.8469 27.9552 20.8469Z" fill="#00427E"/>
</g>
<defs>
<clipPath id="clip0">
<rect width="36" height="36" fill="white"/>
</clipPath>
</defs>
</svg>
